<?xml version="1.0" encoding="UTF-8"?>
<svg width="186" height="64" aria-label="AppGallery" role="img" version="1.1" viewBox="0 0 186 64" xmlns="http://www.w3.org/2000/svg">
 <rect x="1" y="1" width="184" height="62" rx="20" stroke="#fff" stroke-width="2"/>
 <text class="txt-sub" x="57.86314" y="24.217054" fill="#ffffff" font-family="'-apple-system', BlinkMacSystemFont, 'Segoe UI', Roboto, 'Helvetica Neue', Arial, sans-serif" font-size="11px" font-weight="700" letter-spacing=".5px" stroke-width="1.1638">EXPLORE IT ON</text>
 <rect x="14" y="14" width="36" height="36" ry="10.499" fill="#fd354d" stroke-width=".12632"/>
 <g fill="#fff">
  <path d="m24.256 14.003c-1.3925 0.03129-2.7165 0.33112-3.9223 0.84993a11.696 11.833 0 0 0 11.666 10.98 11.696 11.833 0 0 0 11.666-10.98c-1.2058-0.51881-2.5298-0.81864-3.9223-0.84993a7.7436 7.9052 0 0 1-7.7437 7.9025 7.7436 7.9052 0 0 1-7.7437-7.9025z" stroke-width=".075282"/>
  <path d="m30.342 36.356h-1.0908l-0.43359-1.128h-1.985l-0.40988 1.128h-1.0637l1.9342-4.966h1.0603zm-1.8462-1.9647-0.68427-1.8428-0.67072 1.8428zm2.3441-1.6328h0.88751v0.52844q0.17276-0.271 0.46747-0.44037t0.65378-0.16937q0.62668 0 1.0637 0.49118 0.43698 0.49118 0.43698 1.3685 0 0.90106-0.44037 1.4024-0.44037 0.49796-1.067 0.49796-0.2981 0-0.54199-0.11856-0.24051-0.11856-0.50812-0.40649v1.8123h-0.95188zm0.94171 1.7378q0 0.60635 0.24051 0.89768 0.24051 0.28793 0.58603 0.28793 0.33197 0 0.55216-0.26422 0.22018-0.26761 0.22018-0.87396 0-0.5657-0.22696-0.84009t-0.56232-0.27438q-0.34891 0-0.57926 0.271-0.23035 0.26761-0.23035 0.79605zm3.296-1.7378h0.88751v0.52844q0.17276-0.271 0.46747-0.44037t0.65378-0.16937q0.62668 0 1.0637 0.49118 0.43698 0.49118 0.43698 1.3685 0 0.90106-0.44037 1.4024-0.44037 0.49796-1.067 0.49796-0.2981 0-0.54199-0.11856-0.24051-0.11856-0.50812-0.40649v1.8123h-0.95188zm0.94171 1.7378q0 0.60635 0.24051 0.89768 0.24051 0.28793 0.58603 0.28793 0.33197 0 0.55216-0.26422 0.22018-0.26761 0.22018-0.87396 0-0.5657-0.22696-0.84009-0.22696-0.27438-0.56232-0.27438-0.34891 0-0.57926 0.271-0.23035 0.26761-0.23035 0.79605z" stroke-width=".085039" aria-label="App"/>
  <path d="m22.792 42.057v-0.8367h2.1612v1.9783q-0.31503 0.30487-0.91461 0.5386-0.59619 0.23035-1.2093 0.23035-0.77912 0-1.3584-0.3252-0.57926-0.32858-0.87058-0.93494-0.29132-0.60974-0.29132-1.3245 0-0.77573 0.3252-1.3787t0.95188-0.92478q0.47763-0.24728 1.189-0.24728 0.92478 0 1.4431 0.38956 0.52167 0.38617 0.67072 1.0704l-0.99591 0.18631q-0.10501-0.36584-0.39633-0.57587-0.28793-0.21341-0.72153-0.21341-0.65717 0-1.0467 0.41666-0.38617 0.41666-0.38617 1.2364 0 0.88412 0.39294 1.3279 0.39294 0.44037 1.0298 0.44037 0.31503 0 0.63007-0.12195 0.31842-0.12534 0.54538-0.30148v-0.63007zm3.7906-0.6741-0.8638-0.15582q0.14566-0.52167 0.50134-0.77234t1.0569-0.25067q0.63684 0 0.94849 0.15244 0.31165 0.14905 0.43698 0.38278 0.12872 0.23034 0.12872 0.85025l-0.01016 1.1111q0 0.47424 0.04404 0.7012 0.04742 0.22357 0.17276 0.48102h-0.94171q-0.03726-0.09485-0.09146-0.28116-0.02371-0.08469-0.03387-0.11179-0.2439 0.23712-0.52167 0.35568t-0.5928 0.11856q-0.55554 0-0.87735-0.30148-0.31842-0.30148-0.31842-0.76218 0-0.30487 0.14566-0.54199 0.14566-0.24051 0.4065-0.36584 0.26422-0.12872 0.75879-0.22357 0.66733-0.12534 0.92478-0.23374v-0.09485q0-0.27438-0.1355-0.38956-0.1355-0.11856-0.51151-0.11856-0.25406 0-0.39633 0.10162-0.14227 0.09824-0.23035 0.34891zm1.2737 0.77234q-0.18292 0.06097-0.57926 0.14566-0.39633 0.08469-0.51828 0.16598-0.18631 0.13211-0.18631 0.33536 0 0.19986 0.14905 0.34552t0.3794 0.14566q0.25745 0 0.49118-0.16937 0.17276-0.12872 0.22696-0.31503 0.03726-0.12195 0.03726-0.46408zm1.8733 1.7276v-4.966h0.95188v4.966zm1.9275 0v-4.966h0.95188v4.966zm4.0107-1.145 0.94849 0.15921q-0.18292 0.52167-0.57926 0.79605-0.39294 0.271-0.98575 0.271-0.93833 0-1.3889-0.61313-0.35568-0.49118-0.35568-1.2398 0-0.89429 0.46747-1.399 0.46747-0.50812 1.1822-0.50812 0.80283 0 1.2669 0.53183 0.46408 0.52844 0.44376 1.6226h-2.3848q0.01016 0.42343 0.23035 0.66055 0.22018 0.23374 0.54877 0.23374 0.22357 0 0.37601-0.12195t0.23035-0.39295zm0.0542-0.96204q-0.01016-0.41327-0.21341-0.62668-0.20325-0.2168-0.49457-0.2168-0.31165 0-0.51489 0.22696-0.20325 0.22696-0.19986 0.61652zm2.6321 2.107h-0.95188v-3.5975h0.88413v0.5115q0.22696-0.36246 0.4065-0.47763 0.18292-0.11517 0.41327-0.11517 0.3252 0 0.62668 0.17954l-0.29471 0.82993q-0.24051-0.15582-0.44714-0.15582-0.19986 0-0.33875 0.11179-0.13889 0.1084-0.22018 0.39633-0.07791 0.28794-0.07791 1.2059zm1.338-3.5975h1.0129l0.86041 2.5541 0.84009-2.5541h0.98575l-1.2703 3.462-0.22696 0.62668q-0.12534 0.31503-0.24051 0.48102-0.11178 0.16599-0.26083 0.26761-0.14566 0.10501-0.36246 0.1626-0.21341 0.05759-0.48441 0.05759-0.27438 0-0.53861-0.05759l-0.08469-0.74524q0.22357 0.04404 0.40311 0.04404 0.33197 0 0.49118-0.19647 0.15921-0.19308 0.2439-0.49457z" stroke-width=".085039" aria-label="Gallery"/>
 </g>
 <text x="58.577999" y="45.245773" fill="#ffffff" font-family="Arial" font-size="20.422px" font-weight="bold" stroke-width="1.5437" xml:space="preserve"><tspan x="58.577999" y="45.245773" fill="#ffffff" font-size="20.422px" stroke-width="1.5437">AppGallery</tspan></text>
</svg>
